PathFileType	4	(X/Y/Z)	Patient4_TMGait_0pt3_03_left_15.trc.trc
DataRate	CameraRate	NumFrames	NumMarkers	Units	OrigDataRate	OrigDataStartFrame	OrigNumFrames
48.951048951049	48.951048951049	5	33	mm	48.951048951049	36	       141
Frame#	Time	Sacral			L.Shoulder			Chest			R.Shoulder			Neck			R.ASIS			L.ASIS			R.Thigh.Superior			R.Thigh.Lateral			R.Thigh.Inferior			R.Patella			L.Thigh.Superior			L.Thigh.Lateral			L.Thigh.Inferior			L.Patella			L.Shank.Superior			L.Shank.Lateral			L.Shank.Inferior			R.Shank.Superior			R.Shank.Lateral			R.Shank.Inferior			R.Heel			R.Midfoot.Superior			R.Midfoot.Lateral			R.Toe			L.Heel			L.Midfoot.Lateral			L.Midfoot.Superior			L.Toe			L.Elbow			L.Wrist			R.Elbow			R.Wrist			
		X1	Y1	Z1	X2	Y2	Z2	X3	Y3	Z3	X4	Y4	Z4	X5	Y5	Z5	X6	Y6	Z6	X7	Y7	Z7	X8	Y8	Z8	X9	Y9	Z9	X10	Y10	Z10	X11	Y11	Z11	X12	Y12	Z12	X13	Y13	Z13	X14	Y14	Z14	X15	Y15	Z15	X16	Y16	Z16	X17	Y17	Z17	X18	Y18	Z18	X19	Y19	Z19	X20	Y20	Z20	X21	Y21	Z21	X22	Y22	Z22	X23	Y23	Z23	X24	Y24	Z24	X25	Y25	Z25	X26	Y26	Z26	X27	Y27	Z27	X28	Y28	Z28	X29	Y29	Z29	X30	Y30	Z30	X31	Y31	Z31	X32	Y32	Z32	X33	Y33	Z33	

36	27.985000000000	693.836052086147	1004.332944384603	496.437048123058	831.167796588313	1425.761516989266	274.971434736232	973.067572350608	1355.362728383411	402.208293411376	942.329466244001	1433.760908580939	591.178471678959	856.499925734214	1486.244478376456	439.564811146563	940.246893836244	928.562183504633	562.227111728029	870.307403802593	953.332498713503	297.476471050401	937.555763903593	718.162956563303	536.791964107072	848.639712262676	620.789460424603	614.265019940327	900.523274967852	555.842014379855	527.097312858581	883.514156250107	462.611619768250	540.770872496498	948.878274232573	762.409379300731	325.408625526095	880.233783254635	632.543435678133	266.577890463912	985.700274389100	571.174703339590	317.419494835572	999.292930727117	497.497250252738	319.251902452266	971.506250799294	422.707543188576	314.003059148670	879.554322373868	307.302448783942	269.671150827771	940.741070208619	194.998388807114	329.499301109599	828.670354877280	385.666695861526	555.769571437578	736.729311779406	307.935239769755	629.860081499476	743.980544643155	203.693089221810	569.379749646282	570.918803755806	64.951060262878	555.973373437496	747.109832623487	98.784153148225	583.477511592737	655.707794770127	48.134195520083	626.875674288568	861.867610024749	37.408170178666	609.788551017467	818.733293124283	38.853910231046	378.797006565736	885.322712565110	35.787558448933	292.266877964627	971.279732214959	97.127577764672	311.503565349009	1095.815494235339	44.109528384261	270.943986874103	708.076037580184	1100.670306198697	164.688657325898	724.832533976217	838.192317354666	152.190467120594	1058.493409733553	1111.179477914133	709.001230250471	1294.067519090891	1152.892639714078	634.202187917125	
37	28.005428571429	693.127598932487	1005.140741152365	490.534580611115	831.703880869940	1426.382835039015	269.612330974989	972.831442850396	1355.984864440502	397.713783887628	941.111351939026	1434.496958098857	586.451358265918	856.000926891720	1486.913742230667	434.365561469049	939.082322175949	929.204972824031	557.749731189796	870.612164077504	953.673245973834	292.614185855394	935.913637698095	718.516854627706	533.548068944837	846.388828153966	621.785276002890	611.252825565892	898.750098381217	556.106764485988	524.855588287851	881.561150832945	462.614101054825	539.316797288370	948.028811640016	762.011057349135	321.045003579245	878.414474875687	632.289558123038	262.981414370297	983.353738996055	570.361457570250	314.151005035232	996.507125621155	496.700155977388	316.505589754422	968.126598886807	421.895590230561	311.759805339321	875.349201687953	306.895170827158	267.841143297513	935.561756820575	194.628296739606	328.738707673167	825.894947206381	386.293873065600	554.505849967372	732.833931742085	309.888845079578	628.570601503795	739.782782731985	205.015503042951	569.043240725030	565.502670113681	67.810982520617	556.002111855377	742.197011523464	99.182542438305	583.366360551714	650.164691207629	49.697129178589	626.859686232841	856.040059398092	37.229365267731	609.697748119926	812.685679023325	38.817255804898	378.728715946025	879.268286681651	35.750558192907	292.179328281607	965.216732010163	97.092539605980	311.408580012362	1089.824332202255	44.029735855983	270.894352072515	712.559357568832	1101.182636337251	154.683973511996	735.239103595414	839.315084188822	138.087051410807	1055.133463111148	1111.060446798773	704.876012417463	1293.915860821076	1143.929496919094	634.400557769332	
38	28.025857142857	692.184281986070	1005.988695477204	484.654796770092	832.353000041834	1426.938132097099	264.220835016096	972.575520469970	1356.555392715227	393.328918305550	939.760362812957	1435.317684058977	581.755637406136	855.534242482271	1487.598939267868	429.090442948708	937.660556114056	929.845156028266	553.427093243889	870.775251351159	954.019028055788	287.876255755657	934.404488475965	718.944648565514	530.311050304215	844.535291383544	622.687379730695	608.226405384196	897.548849900519	556.377581955298	522.576019200459	880.364643333374	462.478720492268	537.917640554218	946.833199216559	761.467863187991	316.582076090240	876.021616482488	632.008280254290	259.405596275240	980.415761646335	569.458851568159	310.833215136501	993.080901895221	495.890542080105	313.726709090020	964.194164040839	421.105115725062	309.469047187294	870.661835602358	306.423315051332	266.034138610019	930.101598835897	194.259363756651	327.927743318820	823.743082649606	386.855603429573	553.261993830896	729.431801967861	311.952426461571	627.255630010821	735.944456206412	206.404930461452	568.734653620136	560.250667369598	71.001984174031	556.045567739969	737.524164047604	99.651549020408	583.390885458368	644.732241144075	51.441066729737	626.865513843234	850.234536627276	37.068181847705	609.593698563939	806.566893860040	38.763865443048	378.676328884414	873.131147984620	35.681648225150	292.091528584514	959.064638985892	97.026220090186	311.296828920085	1083.745130265791	43.969846290857	270.843641353715	717.683557619236	1101.549357033010	144.661560585085	746.493591068484	840.521537463591	124.070564061719	1050.923790416563	1110.839905465227	700.997096118862	1292.755499712702	1133.784711215354	635.337007905082	
39	28.046285714286	691.000737992155	1006.820852680433	478.828884660615	833.080581256957	1427.376672023982	258.818273975813	972.271565358855	1357.037113986032	389.062916056759	938.257920687936	1436.186920379388	577.100735623675	855.103318812334	1488.260264661185	423.748722443702	935.969093998691	930.453568775571	549.267374852431	870.788068911247	954.340955355798	283.284305976964	933.115754192381	719.440392873835	527.077865241445	843.216341261125	623.446565088088	605.184201065178	897.075674078528	556.635565949411	520.241765436942	880.096706224235	462.169745125044	536.557776052333	945.372383374242	760.813991057685	312.091687980305	873.223394995808	631.703453606092	255.884929239440	977.062876893292	568.504167206816	307.523189397735	989.198060010689	495.075727251597	310.969268568855	959.878893392057	420.331353492391	307.179522377063	865.654890793193	305.909757826161	264.261943587765	924.444198117404	193.880493743894	327.091157013396	822.367526659611	387.320965638623	552.023655590208	726.662496802173	314.146364650091	625.905771732705	732.556443726662	207.885325122902	568.443658046162	555.226543554268	74.640447640049	556.094445684042	733.129631110087	100.221931672084	583.562619892144	639.436738141068	53.452853219890	626.888431528846	844.432339425448	36.912117792823	609.487518687705	800.391949666788	38.699465768800	378.633348080336	866.929927400334	35.589690125488	292.002306235940	952.845526314709	96.932526744629	311.176457003780	1077.598620511431	43.919817136661	270.792352010496	723.464756922143	1101.701687768961	134.697731222475	758.636242418369	841.764262595282	110.246552753617	1045.812013170139	1110.509585122223	697.438636781946	1290.351621694598	1122.383204619797	636.960961536238	
40	28.066714285714	689.581628392270	1007.579258448038	473.080103982570	833.858947850977	1427.656146879568	253.427532309330	971.892576019492	1357.395294282199	384.929144382374	936.579159201338	1437.058494602115	572.501844759931	854.706346906110	1488.856212807262	418.357006534536	933.997333628712	931.004143599724	545.277929528772	870.654940665007	954.605650281300	278.858011692675	932.136976753674	720.008110578726	523.864135827525	842.557319023982	624.029741019312	602.133080838813	897.478238475993	556.876735062189	517.850525944477	880.910759114846	461.676632908658	535.222074337044	943.733252335395	760.077428333419	307.662750893850	870.204228168165	631.372147548070	252.456550587507	973.480150756867	567.525688917515	304.296558000385	985.058724092487	494.256745596141	308.299773895704	955.358950785972	419.564666498565	304.950349668652	860.499442165450	305.374733460250	262.544199469421	918.680980063465	193.482086015805	326.259773013964	821.911559730800	387.676604343299	550.774700266080	724.663323307556	316.505663652841	624.507442023867	729.712513828912	209.501620595971	568.153622133280	550.509926235159	78.880884857663	556.124563491797	729.043689233750	100.930765858908	583.858026585034	634.309660020617	55.856597536237	626.911783935817	838.608253460801	36.743284103074	609.392770844281	794.180533904929	38.631028005863	378.594724594304	860.688165464644	35.485390701241	291.912625970759	946.586326385256	96.817187820514	311.057479257848	1071.409714289536	43.868028039504	270.742158863239	729.886943099286	1101.593439437058	124.874235061566	771.693936339170	843.017490549077	96.731386614341	1039.765099947946	1110.060431674649	694.260106026326	1286.470279438286	1109.660006480347	639.203029583835	
